<svg id="Vrstva_1" data-name="Vrstva 1" xmlns="http://www.w3.org/2000/svg" xmlns:xlink="http://www.w3.org/1999/xlink" viewBox="0 0 284.04 79.82"><defs><style>.cls-1{fill:none;}.cls-2{clip-path:url(#clip-path);}.cls-3{fill:#ae0f0a;}.cls-4{fill:#004994;}</style><clipPath id="clip-path"><rect class="cls-1" x="2.3" y="2.85" width="279.43" height="74.12"/></clipPath></defs><title>fnol cz</title><g id="FNOL_logo" data-name="FNOL logo"><g class="cls-2"><g class="cls-2"><path class="cls-3" d="M79.64,19c-1.89-3.14-5.26-6-9.88-9L69,9.49C52.54-.95,47.28,3,42.82,7.4h0a48.84,48.84,0,0,0-11,22.25c-.2,1.05,1.62-6,11.07-6,12.42,0,18.74,18.4-.65,53.18V77h0c.34-.32.63-.61.9-.88,1-1,2.28-2.33,2.47-2.56h0l.82-.83c.08-.08.17-.16.25-.25,6.88-7,12.65-13,17.38-18.31C80.1,36.05,84.21,26.62,79.64,19"/><path class="cls-4" d="M41.45,76.91v0c-.34-.33-4.28-4.43-4.36-4.52-6.88-7-12.65-13-17.38-18.31C3.59,36.05-.52,26.62,4.05,19c1.89-3.14,5.26-6,9.88-9l.81-.52C31.15-.95,36.41,3,40.87,7.4a49.26,49.26,0,0,0-12,30.28l0,.11c-.48,7.63,1.91,18.33,8.73,32.05.71,1.43,3.5,6.32,3.84,6.94Z"/><polygon class="cls-4" points="90.59 41.08 85.12 41.08 85.12 45.47 89.66 45.47 89.66 46.77 85.12 46.77 85.12 53.13 83.41 53.13 83.41 39.75 90.86 39.75 90.59 41.08"/><path class="cls-4" d="M96.2,41.16,94,47.71h4.4Zm3.94,12L98.8,49H93.52l-1.36,4.12H90.44l4.73-13.39h2.21l4.68,13.39Z"/><path class="cls-4" d="M107.84,46l5.65,7.1h-2.17l-5.4-7.08,5.45-6.3h2.16Zm-3.72-6.28h1.72V53.13h-1.72Z"/><path class="cls-4" d="M123.7,52.34a5.57,5.57,0,0,1-3.71,1c-2.19,0-3.43-.61-4.19-1.93a4.38,4.38,0,0,1-.41-2.09v-9.6h1.67v9a5.75,5.75,0,0,0,.25,1.94c.26.58,1,1.3,2.76,1.3a3.18,3.18,0,0,0,2.5-.83,3,3,0,0,0,.53-2.09V39.75h1.67v9.52c0,1.62-.22,2.38-1.07,3.07"/><polygon class="cls-4" points="135.54 53.13 128.49 53.13 128.49 39.75 130.18 39.75 130.18 51.79 135.77 51.79 135.54 53.13"/><polygon class="cls-4" points="144.1 41.1 140.27 41.1 140.27 53.13 138.64 53.13 138.64 41.1 134.84 41.1 134.84 39.75 144.21 39.75 144.1 41.1"/><path class="cls-4" d="M153.39,53.14l-4.54-8.2c-.91-1.62-1.61-3.22-1.61-3.22s.17,1.91.19,3.65l.08,7.77h-1.75V39.75h2l4.7,8.55a25.69,25.69,0,0,1,1.32,2.81s-.16-2.15-.19-4.08l-.06-7.28h1.67V53.14Z"/><path class="cls-4" d="M159,39.75h1.65V53.14H159Zm0-.76-.54-.92,4.27-2.53.89,1.5Z"/><path class="cls-4" d="M176.93,53.14l-4.54-8.2c-.91-1.62-1.61-3.22-1.61-3.22s.17,1.91.19,3.65l.08,7.77h-1.76V39.75h2L176,48.3a25.69,25.69,0,0,1,1.32,2.81s-.16-2.15-.19-4.08L177,39.75h1.67V53.14Z"/><polygon class="cls-4" points="182.52 53.13 182.52 39.75 190.26 39.75 190.03 41.08 184.23 41.08 184.23 45.47 189.08 45.47 189.08 46.85 184.23 46.85 184.23 51.75 190.46 51.75 190.46 53.13 182.52 53.13"/><path class="cls-4" d="M204.68,53.14l-.83-9.82c-.06-.86-.1-2.28-.1-2.28s-.29,1.23-.56,2.11l-3,10h-1.44l-2.81-9.51c-.45-1.5-.7-2.61-.7-2.61s-.1,1.78-.17,2.59l-.78,9.53h-1.63l1.24-13.39h2.47l2.58,8.74a21.26,21.26,0,0,1,.56,2.34,20.76,20.76,0,0,1,.51-2.18l2.67-8.9h2.49l1.22,13.39Z"/><path class="cls-4" d="M217.84,42.64a3.33,3.33,0,0,0-3.15-1.83,3.42,3.42,0,0,0-3,1.56,7.39,7.39,0,0,0-.72,3.68,9.82,9.82,0,0,0,.91,4.67,3.76,3.76,0,0,0,3,1.44A3.22,3.22,0,0,0,217.49,51c.7-.84,1-1.91,1-4.12a9.53,9.53,0,0,0-.68-4.25m.52,9.46a5.12,5.12,0,0,1-3.59,1.29,5.3,5.3,0,0,1-4-1.7,7.66,7.66,0,0,1-1.69-5.3c0-4.26,2.15-6.87,5.64-6.87a5.18,5.18,0,0,1,4.45,2.18,8.18,8.18,0,0,1,1.28,5c0,2.57-.62,4.19-2.06,5.44"/><path class="cls-4" d="M228.82,53.35a5.63,5.63,0,0,1-4.13-1.78A7.28,7.28,0,0,1,223,46.48c0-4,2.52-6.9,5.94-6.9a6.07,6.07,0,0,1,3.57,1.09l-.91,1a4.42,4.42,0,0,0-2.68-.84,3.61,3.61,0,0,0-3.49,2.31,8.29,8.29,0,0,0-.6,3.55,6.74,6.74,0,0,0,.46,2.83,4,4,0,0,0,3.8,2.49,4.58,4.58,0,0,0,2.76-.86l.91,1.08a7.63,7.63,0,0,1-3.94,1.09"/><path class="cls-4" d="M243,53.14l-4.54-8.2c-.91-1.62-1.61-3.22-1.61-3.22s.17,1.91.19,3.65l.08,7.77h-1.75V39.75h2L242,48.3a25.69,25.69,0,0,1,1.32,2.81s-.16-2.15-.18-4.08l-.07-7.28h1.67V53.14Z"/><rect class="cls-4" x="248.56" y="39.75" width="1.65" height="13.38"/><path class="cls-4" d="M259.23,53.35a5.65,5.65,0,0,1-4.13-1.78,7.28,7.28,0,0,1-1.69-5.09c0-4,2.52-6.9,5.94-6.9a6.07,6.07,0,0,1,3.57,1.09l-.91,1a4.42,4.42,0,0,0-2.68-.84,3.61,3.61,0,0,0-3.49,2.31,8.3,8.3,0,0,0-.59,3.55,6.76,6.76,0,0,0,.45,2.83A4,4,0,0,0,259.5,52a4.58,4.58,0,0,0,2.76-.86l.91,1.08a7.63,7.63,0,0,1-3.94,1.09"/><polygon class="cls-4" points="265.54 53.13 265.54 39.75 273.28 39.75 273.05 41.08 267.25 41.08 267.25 45.47 272.1 45.47 272.1 46.85 267.25 46.85 267.25 51.75 273.48 51.75 273.48 53.13 265.54 53.13"/><path class="cls-4" d="M91.58,64.34a3.35,3.35,0,0,0-3.16-1.84,3.44,3.44,0,0,0-3,1.56,7.35,7.35,0,0,0-.72,3.69,9.74,9.74,0,0,0,.91,4.66,3.74,3.74,0,0,0,3,1.45,3.23,3.23,0,0,0,2.64-1.15c.7-.84,1-1.92,1-4.12a9.68,9.68,0,0,0-.68-4.25m.51,9.46a5.09,5.09,0,0,1-3.59,1.29,5.29,5.29,0,0,1-4-1.7,7.67,7.67,0,0,1-1.69-5.31c0-4.25,2.15-6.86,5.63-6.86a5.17,5.17,0,0,1,4.46,2.18,8.18,8.18,0,0,1,1.28,5c0,2.57-.62,4.19-2.07,5.44"/><polygon class="cls-4" points="104.41 74.83 97.36 74.83 97.36 61.45 99.05 61.45 99.05 73.49 104.64 73.49 104.41 74.83"/><path class="cls-4" d="M114.15,64.34A3.35,3.35,0,0,0,111,62.5a3.44,3.44,0,0,0-3,1.56,7.35,7.35,0,0,0-.72,3.69,9.74,9.74,0,0,0,.91,4.66,3.74,3.74,0,0,0,3,1.45,3.23,3.23,0,0,0,2.64-1.15c.7-.84,1-1.92,1-4.12a9.68,9.68,0,0,0-.68-4.25m.51,9.46a5.09,5.09,0,0,1-3.59,1.29,5.29,5.29,0,0,1-4-1.7,7.67,7.67,0,0,1-1.69-5.31c0-4.25,2.15-6.86,5.63-6.86a5.17,5.17,0,0,1,4.46,2.18,8.18,8.18,0,0,1,1.28,5c0,2.57-.62,4.19-2.07,5.44"/><path class="cls-4" d="M131.46,74.83,130.63,65c-.06-.86-.1-2.28-.1-2.28s-.29,1.23-.56,2.1l-3,10H125.5l-2.81-9.5c-.45-1.5-.7-2.61-.7-2.61s-.1,1.77-.17,2.59L121,74.83h-1.63l1.24-13.38h2.47l2.58,8.74a21.26,21.26,0,0,1,.56,2.34s.19-1.07.52-2.18l2.66-8.9h2.49l1.22,13.38Z"/><path class="cls-4" d="M144.62,64.34a3.34,3.34,0,0,0-3.16-1.84,3.44,3.44,0,0,0-3,1.56,7.46,7.46,0,0,0-.72,3.69,9.74,9.74,0,0,0,.91,4.66,3.74,3.74,0,0,0,3,1.45,3.22,3.22,0,0,0,2.64-1.15c.7-.84,1-1.92,1-4.12a9.53,9.53,0,0,0-.68-4.25m.52,9.46a5.12,5.12,0,0,1-3.59,1.29,5.3,5.3,0,0,1-4-1.7,7.67,7.67,0,0,1-1.69-5.31c0-4.25,2.15-6.86,5.63-6.86a5.17,5.17,0,0,1,4.46,2.18,8.18,8.18,0,0,1,1.28,5c0,2.57-.62,4.19-2.06,5.44"/><path class="cls-4" d="M158.61,74a5.53,5.53,0,0,1-3.71,1c-2.19,0-3.43-.61-4.19-1.94a4.34,4.34,0,0,1-.42-2.08v-9.6H152v9a6.08,6.08,0,0,0,.24,1.94c.27.58,1,1.3,2.77,1.3a3.16,3.16,0,0,0,2.5-.84,3,3,0,0,0,.53-2.08V61.45h1.67V71c0,1.62-.22,2.38-1.07,3.06"/><path class="cls-4" d="M168.6,75.05a5.63,5.63,0,0,1-4.13-1.78,7.3,7.3,0,0,1-1.69-5.09c0-4,2.51-6.91,5.94-6.91a6,6,0,0,1,3.57,1.1l-.91,1a4.44,4.44,0,0,0-2.68-.84,3.61,3.61,0,0,0-3.49,2.3,8.32,8.32,0,0,0-.6,3.55,6.71,6.71,0,0,0,.46,2.83,4,4,0,0,0,3.79,2.5,4.59,4.59,0,0,0,2.77-.86l.91,1.08a7.63,7.63,0,0,1-3.94,1.09"/><path class="cls-4" d="M278.27,36.61h.43c.51,0,.76.22.76.66a.69.69,0,0,1-.2.53.79.79,0,0,1-.55.18h-.44Zm1.29-.09a1.37,1.37,0,0,0-.86-.24h-.82v3.4h.39V38.29h.65l.82,1.39h.46l-.91-1.52a1,1,0,0,0,.42-.37.94.94,0,0,0,.15-.53.88.88,0,0,0-.3-.74m-3.26,2.89a2.92,2.92,0,0,0,4,1.07,2.91,2.91,0,0,0,1.05-1.07,2.94,2.94,0,0,0,0-2.89,2.84,2.84,0,0,0-1.06-1.06,2.91,2.91,0,0,0-2.91,0,2.79,2.79,0,0,0-1.06,1.07,2.89,2.89,0,0,0,0,2.88m.32-2.7a2.5,2.5,0,0,1,.94-.94,2.55,2.55,0,0,1,2.56,0,2.51,2.51,0,0,1,.92.94,2.56,2.56,0,0,1,0,2.53,2.59,2.59,0,0,1-.93.93,2.45,2.45,0,0,1-1.27.35,2.49,2.49,0,0,1-1.28-.35,2.59,2.59,0,0,1-.93-.93,2.44,2.44,0,0,1-.34-1.27,2.47,2.47,0,0,1,.34-1.27"/></g></g></g></svg>